# xmcd
#
# Track frame offsets: 
#        150
#        18277
#        25185
#        46869
#        57999
#        87451
#        105195
#        118492
#        126544
#        140676
#        179360
#        186761
#        196336
#        201844
#        216412
#        246415
#        255823
#        274771
#
# Disc length: 3872 seconds
#
# Revision: 2
# Processed by: cddbd v1.5.2PL0 Copyright (c) Steve Scherf et al.
# Submitted via: ExactAudioCopyFreeDBPlugin 1.0
#
DISCID=0d0f1e12
DTITLE=Various Artist - Songs For Christmas [CD 2 Klassik)
DYEAR=2009
DGENRE=Weihnachten
TTITLE0=Angelika Kirchschlager, Alfred Eschwé - In The Bleak Midwinter
TTITLE1=La Petite Bande, Sigiswald Kuijken - Die Geburt unseres Herren
TTITLE1=Jesu Christi
TTITLE2=Christine Schäfer, Nikolaus Harnoncourt - Rejoice Greatly , O 
TTITLE2=Daughter Of Zion
TTITLE3=Placido Domingo, Helmuth Forschauer - Ave Maria
TTITLE4=Ralf Otto - Consurge Filia Sion - Quintette et chœur
TTITLE5=Gábor Boldoczki, Hedwig Bilgram, László Fenyo - Ave Maria In F
TTITLE5=Moll
TTITLE6=Nikolaus Harnoncourt, Arnold Schoenberg - And He Shall Purify
TTITLE7=Hanns-Martin Schneidt - Machet die Tore weit
TTITLE8=José Carreras - Adeste Fideles
TTITLE9=Franziska Hirzel, Roman Kofman - Pastorale und Verkündigung de
TTITLE9=s Engels
TTITLE10=Martin Neary - Procession
TTITLE11=Mario Lanza, Paul Baron - Hark! The Herald Angel Sing
TTITLE12=Nikolaus Harnoncourt - Ich steh an deiner Krippen hier
TTITLE13=Anna Stephany, David Zinman - Pastorcito Santo
TTITLE14=Roman Kofman - Marsch der Heiligen Drei Könige
TTITLE15=Nikolaus Harnoncourt - Herrscher des Himmels
TTITLE16=Simona Houda Saturová, Burkhard Schaeffer, Petra Morath-Pusin
TTITLE16=elli - Noël
TTITLE17=Regensburger Domspatzen, Eberhard Kraus, Georg Ratzinger - St
TTITLE17=ille Nacht, Heilige Nacht
EXTD=
EXTT0=
EXTT1=
EXTT2=
EXTT3=
EXTT4=
EXTT5=
EXTT6=
EXTT7=
EXTT8=
EXTT9=
EXTT10=
EXTT11=
EXTT12=
EXTT13=
EXTT14=
EXTT15=
EXTT16=
EXTT17=
PLAYORDER=
